<ttFont>
          <CharString index="0">
            70 360 rmoveto
            -279 127 -96 132 132 127 96 279 -104 callsubr
            return
          </CharString>
          <CharString index="1">
            hstemhm
            0 callsubr
            hintmask 11001100
            -107 callsubr
            return
          </CharString>
          <CharString index="2">
            70 280 rmoveto
            -209 123 -86 128 128 123 86 209 -69 callsubr
            vhcurveto
            84 hmoveto
            -76 callsubr
            return
          </CharString>
          <CharString index="3">
            279 -126 96 -133 -31 callsubr
            vhcurveto
            87 hmoveto
            -74 callsubr
            -75 callsubr
            return
          </CharString>
          <CharString index="4">
            hstemhm
            1 callsubr
            hintmask 11001100
            -105 callsubr
            return
          </CharString>
          <CharString index="5">
            543 hmoveto
            -214 720 rlineto
            -104 hlineto
            -215 -720 rlineto
            84 hlineto
            54 193 rlineto
            252 hlineto
            53 -193 rlineto
            -177 642 rmoveto
            106 -384 rlineto
            -215 hlineto
            return
          </CharString>
          <CharString index="6">
            rmoveto
            hintmask 00100000
            -94 callsubr
            hintmask 00010000
            -97 callsubr
          </CharString>
          <CharString index="7">
            -20 -106 callsubr
            hintmask 00110000
            return
          </CharString>
          <CharString index="8">
            -20 -103 callsubr
            hintmask 00110000
            return
          </CharString>
          <CharString index="9">
            527 hmoveto
            -209 560 rlineto
            -98 hlineto
            -210 -560 -90 callsubr
            return
          </CharString>
          <CharString index="10">
            -46 -10 34 -64 hhcurveto
            -35 -38 -20 -25 -24 hvcurveto
            34 -48 rlineto
            15 18 15 10 26 hhcurveto
            endchar
          </CharString>
          <CharString index="11">
            hstemhm
            hintmask 11100000
            -102 callsubr
            return
          </CharString>
          <CharString index="12">
            hstemhm
            hintmask 11100000
            -98 callsubr
            return
          </CharString>
          <CharString index="13">
            46 10 -34 64 hhcurveto
            35 38 20 25 24 hvcurveto
            -34 48 rlineto
            -15 -18 -15 -10 -26 hhcurveto
            return
          </CharString>
          <CharString index="14">
            542 hmoveto
            -179 301 rlineto
            69 29 57 60 108 vvcurveto
            153 -94 69 -155 vhcurveto
            -150 67 callsubr
            282 105 hlineto
            161 -282 rlineto
            -202 655 rmoveto
            119 44 -56 -101 -101 -56 -50 -104 hvcurveto
            -67 308 hlineto
            return
          </CharString>
          <CharString index="15">
            85 -16 callsubr
            -511 vlineto
            -146 80 -78 140 140 79 78 146 vhcurveto
            511 -81 -510 vlineto
            -99 -41 -58 -97 -97 -38 58 99 vhcurveto
            510 vlineto
            return
          </CharString>
          <CharString index="16">
            85 -20 callsubr
            -379 vlineto
            -117 78 -79 135 136 77 79 117 vhcurveto
            379 -79 -385 vlineto
            -75 -39 -48 -94 -94 -38 48 75 vhcurveto
            385 vlineto
            return
          </CharString>
          <CharString index="17">
            rlineto
            83 hlineto
            48 135 rlineto
            250 hlineto
            47 -135 rlineto
            -170 494 rmoveto
            101 -295 rlineto
            -206 hlineto
            return
          </CharString>
          <CharString index="18">
            rmoveto
            -53 24 71 -66 119 hhcurveto
            123 80 66 93 104 -60 27 -117 43 hvcurveto
            -100 37 -37 15 57 vvcurveto
            55 57 23 59 60 36 -25 -47 24 vhcurveto
            70 28 rlineto
            63 -34 -67 43 -91 hhcurveto
            -122 -70 -70 -76 -84 59 -43 96 -32 hvcurveto
            121 -40 35 -14 -67 vvcurveto
            -67 -63 -25 -59 -81 -49 49 38 -15 vhcurveto
            return
          </CharString>
          <CharString index="19">
            -20 hstemhm
            85 85 273 81 hintmask 11001100
            -92 callsubr
            hintmask 00110000
            return
          </CharString>
          <CharString index="20">
            -20 hstemhm
            85 82 265 79 hintmask 11001100
            -91 callsubr
            hintmask 00110000
            return
          </CharString>
          <CharString index="21">
            rmoveto
            90 -95 -90 vlineto
            300 hmoveto
            90 -95 -90 vlineto
            endchar
          </CharString>
          <CharString index="22">
            -20 -95 callsubr
            hintmask 00011000
            return
          </CharString>
          <CharString index="23">
            -20 -96 callsubr
            hintmask 00011000
            return
          </CharString>
          <CharString index="24">
            rmoveto
            122 -70 36 48 -122 91 rlineto
            -72 hlineto
            -122 -91 36 -48 rlineto
            endchar
          </CharString>
          <CharString index="25">
            rmoveto
            120 -79 38 47 -122 101 rlineto
            -72 hlineto
            -122 -101 38 -47 rlineto
            endchar
          </CharString>
          <CharString index="26">
            519 hmoveto
            -161 220 rlineto
            64 22 46 48 93 vvcurveto
            124 -94 53 -135 vhcurveto
            -149 -560 81 206 106 hlineto
            146 -206 rlineto
            -182 498 rmoveto
            94 50 -37 -78 -82 -48 -33 -100 hvcurveto
            -66 230 hlineto
            return
          </CharString>
          <CharString index="27">
            24 callsubr
            hintmask 11100100
            -78 callsubr
            hintmask 00011000
            return
          </CharString>
          <CharString index="28">
            49 callsubr
            hintmask 11100100
            -77 callsubr
            hintmask 00011000
            return
          </CharString>
          <CharString index="29">
            410 399 rmoveto
            -235 253 265 68 -350 -720 350 68 -265 265 235 hlineto
            return
          </CharString>
          <CharString index="30">
            400 317 rmoveto
            -228 176 257 67 -339 -560 339 67 -257 185 228 hlineto
            return
          </CharString>
          <CharString index="31">
            -54 callsubr
            -66 callsubr
            return
          </CharString>
          <CharString index="32">
            -201 -58 -109 -114 -114 -58 108 202 vhcurveto
            return
          </CharString>
          <CharString index="33">
            202 58 108 114 114 58 -109 -201 return
          </CharString>
          <CharString index="34">
            4 callsubr
            44 20 callsubr
            -100 callsubr
            return
          </CharString>
          <CharString index="35">
            78 233 81 vstem
            50 104 -89 callsubr
            return
          </CharString>
          <CharString index="36">
            3 callsubr
            54 -21 167 -99 callsubr
            return
          </CharString>
          <CharString index="37">
            -45 callsubr
            -49 vmoveto
            67 56 42 72 10 callsubr
            -72 56 -42 67 hvcurveto
            endchar
          </CharString>
          <CharString index="38">
            209 -122 86 -129 -32 callsubr
            return
          </CharString>
          <CharString index="39">
            rmoveto
            24 -44 175 78 -43 69 rlineto
            endchar
          </CharString>
          <CharString index="40">
            24 callsubr
            227 87 hintmask 11100110
            -93 callsubr
            hintmask 00011000
            return
          </CharString>
          <CharString index="41">
            -151 -63 -78 -104 -104 -63 78 151 vhcurveto
            return
          </CharString>
          <CharString index="42">
            506 hmoveto
            -262 293 232 267 rlineto
            -98 hlineto
            -207 -242 rlineto
            242 -81 -560 81 257 vlineto
            231 -257 rlineto
            return
          </CharString>
          <CharString index="43">
            rlineto
            49 -6 37 -13 -30 vvcurveto
            -35 -26 -9 -31 -20 -24 7 7 -15 vhcurveto
            -25 -49 rlineto
            -14 25 34 -10 38 hhcurveto
            68 49 41 58 hvcurveto
            endchar
          </CharString>
          <CharString index="44">
            395 -20 callsubr
            -148 -270 -145 270 rlineto
            -92 hlineto
            195 -344 rlineto
            -216 80 216 vlineto
            192 344 rlineto
            return
          </CharString>
          <CharString index="45">
            436 -16 callsubr
            -599 vlineto
            -233 599 rlineto
            -113 -720 77 608 hlineto
            234 -608 rlineto
            110 720 hlineto
            return
          </CharString>
          <CharString index="46">
            415 -20 callsubr
            -463 vlineto
            -207 463 rlineto
            -118 -560 77 468 hlineto
            207 -468 rlineto
            116 560 hlineto
            return
          </CharString>
          <CharString index="47">
            15 callsubr
            79 20 callsubr
            -88 callsubr
            return
          </CharString>
          <CharString index="48">
            16 callsubr
            89 -21 167 -87 callsubr
            return
          </CharString>
          <CharString index="49">
            -1 callsubr
            79 20 callsubr
            -84 callsubr
            return
          </CharString>
          <CharString index="50">
            -24 callsubr
            89 -21 167 -85 callsubr
            return
          </CharString>
          <CharString index="51">
            rmoveto
            34 -43 166 98 -55 69 rlineto
            endchar
          </CharString>
          <CharString index="52">
            rmoveto
            -82 -32 -32 -53 -34 -33 20 32 -16 vhcurveto
            -65 -44 rlineto
            -41 24 52 -37 73 hhcurveto
            103 66 63 116 hvcurveto
            555 -85 vlineto
            return
          </CharString>
          <CharString index="53">
            152 63 78 104 104 63 -79 -151 return
          </CharString>
          <CharString index="54">
            -49 callsubr
            82 560 vlineto
            return
          </CharString>
          <CharString index="55">
            21 -21 560 -20 return
          </CharString>
          <CharString index="56">
            hstemhm
            90 82 hintmask 11001000
            -53 callsubr
            return
          </CharString>
          <CharString index="57">
            25 callsubr
            hintmask 11001000
            -44 callsubr
            return
          </CharString>
          <CharString index="58">
            90 -20 callsubr
            -560 return
          </CharString>
          <CharString index="59">
            rmoveto
            41 14 -29 -28 -32 -24 -30 -21 -21 hvcurveto
            -132 -134 rlineto
            -60 251 60 -160 vlineto
            79 79 rlineto
            43 43 40 42 50 vvcurveto
            83 -59 33 -66 -72 -43 -38 -52 -18 vhcurveto
            69 -18 rlineto
            25 5 21 27 32 hhcurveto
            return
          </CharString>
          <CharString index="60">
            -20 -50 callsubr
            hintmask 00110000
            return
          </CharString>
          <CharString index="61">
            -20 -51 callsubr
            hintmask 00110000
            return
          </CharString>
          <CharString index="62">
            rmoveto
            -33 -27 22 43 43 27 22 33 33 27 -22 -43 -43 -27 -22 -33 hvcurveto
            return
          </CharString>
          <CharString index="63">
            -43 callsubr
            85 720 vlineto
            return
          </CharString>
          <CharString index="64">
            90 -16 callsubr
            -720 return
          </CharString>
          <CharString index="65">
            21 -23 callsubr
            return
          </CharString>
          <CharString index="66">
            41 13 20 33 34 vvcurveto
            73 -62 32 -57 -62 -49 -30 -59 -21 vhcurveto
            66 -20 rlineto
            32 7 20 21 32 hhcurveto
            33 20 -23 -27 -38 -23 -20 -29 hvcurveto
            -18 -51 13 hlineto
            36 31 -10 -49 -40 -19 -27 -41 hvcurveto
            endchar
          </CharString>
          <CharString index="67">
            -11 callsubr
            69 -21 167 -79 callsubr
            return
          </CharString>
          <CharString index="68">
            rmoveto
            hintmask 00010000
            -94 callsubr
            hintmask 00001000
            -97 callsubr
          </CharString>
          <CharString index="69">
            rmoveto
            hintmask 10000000
            -94 callsubr
            hintmask 01000000
            -97 callsubr
          </CharString>
          <CharString index="70">
            rmoveto
            47 hlineto
            75 154 rlineto
            94 -100 -95 vlineto
            return
          </CharString>
          <CharString index="71">
            654 240 rmoveto
            -11 -63 rlineto
            -48 -82 vlineto
            85 242 -60 18 -92 -256 rlineto
            -62 147 -71 66 71 56 58 -56 111 vlineto
            -17 541 14 callsubr
            return
          </CharString>
          <CharString index="72">
            -37 43 callsubr
            81 vstem
            -65 callsubr
            endchar
          </CharString>
          <CharString index="73">
            rmoveto
            -55 -69 166 -98 34 43 rlineto
            endchar
          </CharString>
          <CharString index="74">
            rmoveto
            -43 -69 175 -78 24 44 rlineto
            endchar
          </CharString>
          <CharString index="75">
            -129 -122 -86 -209 return
          </CharString>
          <CharString index="76">
            -133 -126 -96 -279 return
          </CharString>
          <CharString index="77">
            -20 hstemhm
            205 80 hintmask 11001000
            -63 callsubr
            hintmask 00110000
            return
          </CharString>
          <CharString index="78">
            hstemhm
            90 77 248 75 hintmask 11001100
            -61 callsubr
            return
          </CharString>
          <CharString index="79">
            hstemhm
            90 77 269 75 hintmask 11001100
            -62 callsubr
            return
          </CharString>
          <CharString index="80">
            rmoveto
            61 -74 319 -75 vlineto
            -101 -61 30 -53 75 44 rlineto
            -249 -90 -61 vlineto
            endchar
          </CharString>
          <CharString index="81">
            -56 -24 -34 -41 -73 hhcurveto
            -87 -82 71 236 239 77 69 91 63 37 -29 -54 21 hvcurveto
            75 29 rlineto
            65 -30 -62 56 -104 hhcurveto
            -114 -142 -75 -300 return
          </CharString>
          <CharString index="82">
            -50 -22 -45 -31 -61 hhcurveto
            -71 -85 51 177 179 85 50 72 56 40 -28 -41 21 hvcurveto
            69 34 rlineto
            56 -34 -59 45 -93 hhcurveto
            -105 -137 -70 -225 return
          </CharString>
          <CharString index="83">
            -21 21 -21 135 64 361 -20 return
          </CharString>
          <CharString index="84">
            -21 720 -20 return
          </CharString>
          <CharString index="85">
            -153 -37 callsubr
            return
          </CharString>
          <CharString index="86">
            rmoveto
            89 -100 -90 vlineto
            -10 -120 rlineto
            56 hlineto
            endchar
          </CharString>
          <CharString index="87">
            560 rmoveto
            return
          </CharString>
          <CharString index="88">
            419 -16 callsubr
            -159 -344 -157 344 rlineto
            -93 hlineto
            206 -432 rlineto
            -288 84 288 vlineto
            202 432 rlineto
            return
          </CharString>
          <CharString index="89">
            -296 -52 callsubr
            return
          </CharString>
          <CharString index="90">
            rmoveto
            -53 24 50 -37 63 hhcurveto
            91 63 53 108 hvcurveto
            412 -82 -414 vlineto
            -61 -20 -30 -51 -32 -24 19 35 -14 vhcurveto
            endchar
          </CharString>
          <CharString index="91">
            720 rmoveto
            return
          </CharString>
          <CharString index="92">
            134 rmoveto
            -65 -17 -14 -44 -26 -28 7 6 -20 vhcurveto
            -68 vlineto
            -7 21 29 -6 33 hhcurveto
            91 43 53 90 hvcurveto
            430 -82 vlineto
            return
          </CharString>
          <CharString index="93">
            113 -65 56 -71 -71 -64 -56 -113 vhcurveto
            70 hmoveto
            80 26 32 39 39 28 -32 -80 -80 -29 -32 -38 -38 -27 32 80 vhcurveto
            return
          </CharString>
          <CharString index="94">
            rmoveto
            54 20 -72 202 82 188 -54 20 -117 -205 rlineto
            return
          </CharString>
          <CharString index="95">
            rmoveto
            -117 205 -54 -20 82 -188 -72 -202 54 -20 rlineto
            return
          </CharString>
          <CharString index="96">
            -69 0 67 185 65 176 67 return
          </CharString>
          <CharString index="97">
            -58 0 68 265 66 253 68 return
          </CharString>
          <CharString index="98">
            -8 callsubr
            79 20 callsubr
            -47 callsubr
            return
          </CharString>
          <CharString index="99">
            -293 -42 callsubr
            return
          </CharString>
          <CharString index="100">
            rmoveto
            -36 -19 28 26 -5 hvcurveto
            -68 -20 rlineto
            -43 11 46 -46 72 hhcurveto
            74 61 42 75 59 -36 27 -38 8 hvcurveto
            return
          </CharString>
          <CharString index="101">
            -42 callsubr
            hstem
            return
          </CharString>
          <CharString index="102">
            -52 callsubr
            hstem
            return
          </CharString>
          <CharString index="103">
            -5 21 -21 193 65 return
          </CharString>
          <CharString index="104">
            35 callsubr
            167 81 -13 callsubr
            return
          </CharString>
          <CharString index="105">
            -296 43 callsubr
            82 vstem
            -53 callsubr
            endchar
          </CharString>
          <CharString index="106">
            -4 callsubr
            462 -20 return
          </CharString>
          <CharString index="107">
            70 87 344 87 return
          </CharString>
          <CharString index="108">
            70 84 334 84 return
          </CharString>
          <CharString index="109">
            vstem
            -49 callsubr
            return
          </CharString>
          <CharString index="110">
            84 -15 66 459 65 return
          </CharString>
          <CharString index="111">
            100 -15 65 620 65 return
          </CharString>
          <CharString index="112">
            478 19 callsubr
            61 457 -37 callsubr
            return
          </CharString>
          <CharString index="113">
            rmoveto
            -120 79 -38 -47 122 -101 rlineto
            72 hlineto
            122 101 -38 47 rlineto
            endchar
          </CharString>
          <CharString index="114">
            rmoveto
            -122 70 -36 -48 122 -91 rlineto
            72 hlineto
            122 91 -36 48 rlineto
            endchar
          </CharString>
          <CharString index="115">
            rmoveto
            -47 hlineto
            -75 -154 rlineto
            -94 100 95 vlineto
            return
          </CharString>
          <CharString index="116">
            hstem
            0 callsubr
            vstem
            70 360 rmoveto
            return
          </CharString>
          <CharString index="117">
            72 -56 42 -67 -67 -56 -42 -72 return
          </CharString>
          <CharString index="118">
            rmoveto
            100 -100 -100 vlineto
            return
          </CharString>
          <CharString index="119">
            rmoveto
            108 52 -60 -104 -109 -53 -57 -111 hvcurveto
            -75 330 hlineto
            endchar
          </CharString>
          <CharString index="120">
            -133 287 72 hstem
            365 287 rmoveto
            72 -305 -72 vlineto
            endchar
          </CharString>
          <CharString index="121">
            rmoveto
            -64 29 -447 -880 64 -29 rlineto
            return
          </CharString>
          <CharString index="122">
            51 -15 68 667 -20 return
          </CharString>
          <CharString index="123">
            38 -15 67 508 -20 return
          </CharString>
          <CharString index="124">
            -238 -99 -21 920 -20 hstem
            119 82 vstem
            119 800 rmoveto
            return
          </CharString>
          <CharString index="125">
            -21 282 65 308 65 return
          </CharString>
          <CharString index="126">
            -21 248 -20 hstem
            return
          </CharString>
          <CharString index="127">
            -21 147 return
          </CharString>
          <CharString index="128">
            166 70 -166 163 -78 -163 -166 -70 166 hlineto
            return
          </CharString>
          <CharString index="129">
            rmoveto
            94 50 -44 -78 -82 -48 -40 -100 hvcurveto
            -71 244 hlineto
            endchar
          </CharString>
          <CharString index="130">
            -142 rmoveto
            42 -24 37 -55 12 vhcurveto
            return
          </CharString>
          <CharString index="131">
            -20 25 callsubr
            return
          </CharString>
          <CharString index="132">
            hstemhm
            90 85 return
          </CharString>
          <CharString index="133">
            117 167 55 225 225 -149 55 -134 hvcurveto
            return
          </CharString>
          <CharString index="134">
            188 133 86 274 282 -133 78 -190 hvcurveto
            return
          </CharString>
          <CharString index="135">
            69 vlineto
            133 100 59 125 124 -94 60 -135 hvcurveto
            return
          </CharString>
          <CharString index="136">
            76 vlineto
            146 104 74 157 157 -102 72 -147 hvcurveto
            return
          </CharString>
          <CharString index="137">
            -49 callsubr
            351 71 -269 489 vlineto
            return
          </CharString>
          <CharString index="138">
            hstem
            90 81 219 83 2 callsubr
            81 return
          </CharString>
          <CharString index="139">
            -43 callsubr
            362 74 -277 646 vlineto
            return
          </CharString>
          <CharString index="140">
            164 74 -91 -206 -216 -73 -78 -163 hvcurveto
            -44 return
          </CharString>
          <CharString index="141">
            hstem
            90 85 239 87 60 callsubr
            return
          </CharString>
          <CharString index="142">
            102 -21 430 -20 hstem
            return
          </CharString>
          <CharString index="143">
            rmoveto
            70 -410 -70 vlineto
            return
          </CharString>
          <CharString index="144">
            -249 -21 210 -20 return
          </CharString>
          <CharString index="145">
            -21 228 -20 hstem
            25 63 120 63 vstem
            148 return
          </CharString>
          <CharString index="146">
            10 -29 -30 5 -30 hhcurveto
            -32 callsubr
            return
          </CharString>
          <CharString index="147">
            93 107 -41 -178 -178 -100 -39 -99 hvcurveto
            -67 return
          </CharString>
          <CharString index="148">
            -20 hstem
            175 643 rmoveto
            92 -100 -93 vlineto
            25 return
          </CharString>
          <CharString index="149">
            -6 callsubr
            90 return
          </CharString>
          <CharString index="150">
            -5 callsubr
            90 return
          </CharString>
          <CharString index="151">
            -21 206 62 230 62 return
          </CharString>
          <CharString index="152">
            rmoveto
            -113 65 -54 70 70 66 54 113 return
          </CharString>
          <CharString index="153">
            70 163 -20 hstem
            231 78 vstem
            231 return
          </CharString>
          <CharString index="154">
            hlineto
            17 192 rlineto
            -71 hlineto
            -17 -192 rlineto
            return
          </CharString>
          <CharString index="155">
            -21 167 -20 return
          </CharString>
          <CharString index="156">
            -20 hstemhm
            90 82 return
          </CharString>
          <CharString index="157">
            282 -78 -21 120 -21 71 58 return
          </CharString>
          <CharString index="158">
            -284 779 20 callsubr
            -20 hstem
            return
          </CharString>
          <CharString index="159">
            -218 -170 60 860 60 hstem
            return
          </CharString>
          <CharString index="160">
            -20 hstem
            165 hmoveto
            100 -100 -100 vlineto
            return
          </CharString>
          <CharString index="161">
            -218 -170 68 844 68 hstem
            return
          </CharString>
          <CharString index="162">
            -218 -134 -21 970 -20 hstem
            return
          </CharString>
          <CharString index="163">
            97 -92 -97 vlineto
            endchar
          </CharString>
          <CharString index="164">
            68 -34 68 hstemhm
            hintmask 01000000
            113 return
          </CharString>
          <CharString index="165">
            82 251 262 -251 83 return
          </CharString>
          <CharString index="166">
            -18 120 -21 434 -20 hstem
            return
          </CharString>
          <CharString index="167">
            vstem
            -43 callsubr
            85 return
          </CharString>
          <CharString index="168">
            -293 -79 -21 820 -20 hstem
            return
          </CharString>
          <CharString index="169">
            90 81 214 83 return
          </CharString>
          <CharString index="170" raw="1">
            bb0a120b   
          </CharString>
          <CharString index="171">
            -13 68 505 -20 return
          </CharString>
          <CharString index="172">
            -21 139 -20 return
          </CharString>
          <CharString index="173">
            -21 148 -20 return
          </CharString>
          <CharString index="174">
            -720 85 return
          </CharString>
        <CharString name=".notdef">
          -10 0 68 584 68 hstem
          80 68 252 68 vstem
          80 hmoveto
          388 720 -388 hlineto
          68 -652 rmoveto
          584 252 -584 vlineto
          endchar
        </CharString>
        <CharString name=".null">
          endchar
        </CharString>
        <CharString name="A">
          -1 callsubr
          hstem
          -102 callsubr
          endchar
        </CharString>
        <CharString name="AE">
          262 0 65 128 65 75 64 258 65 hstem
          760 65 rmoveto
          -232 hlineto
          -59 268 rlineto
          251 64 -265 hlineto
          -58 258 rlineto
          328 65 -440 hlineto
          -275 -720 rlineto
          84 hlineto
          69 193 rlineto
          253 hlineto
          41 -193 rlineto
          303 hlineto
          -437 634 rmoveto
          79 -376 rlineto
          -215 hlineto
          endchar
        </CharString>
        <CharString name="Aacute">
          -58 callsubr
          57 544 -68 callsubr
        </CharString>
        <CharString name="Acircumflex">
          -1 callsubr
          77 -21 139 -84 callsubr
          109 568 -83 callsubr
        </CharString>
        <CharString name="Adieresis">
          -1 callsubr
          106 -21 90 -84 callsubr
          55 527 -86 callsubr
        </CharString>
        <CharString name="Agrave">
          -58 callsubr
          7 647 -33 callsubr
        </CharString>
        <CharString name="Aring">
          -4 callsubr
          457 -21 26 -20 222 -20 hstemhm
          153 63 120 63 hintmask 11010000
          -102 callsubr
          hintmask 00101110
          109 485 -70 callsubr
        </CharString>
        <CharString name="Atilde">
          -1 callsubr
          79 68 -34 68 -96 callsubr
          hintmask 00001000
          49 555 -39 callsubr
        </CharString>
        <CharString name="B">
          11 0 65 286 61 249 59 25 callsubr
          226 85 -56 89 hintmask 11110100
          -43 callsubr
          187 vlineto
          123 119 57 147 120 -76 49 -73 11 hvcurveto
          hintmask 11111000
          68 20 48 65 74 vvcurveto
          110 -69 67 -148 vhcurveto
          2 -369 rmoveto
          hintmask 11110100
          105 54 -52 -95 -104 -76 -35 -79 hvcurveto
          -100 286 hlineto
          92 310 rmoveto
          hintmask 11111000
          81 53 -36 -85 -79 -43 -49 -91 hvcurveto
          -92 249 hlineto
          endchar
        </CharString>
        <CharString name="C">
          24 -15 68 615 67 hstem
          70 88 vstem
          458 150 rmoveto
          -26 callsubr
          -305 149 -70 106 106 63 54 80 37 hvcurveto
          endchar
        </CharString>
        <CharString name="CR">
          -258 endchar
        </CharString>
        <CharString name="Ccedilla">
          24 -241 59 850 67 hstem
          70 88 197 73 vstem
          428 23 callsubr
          2 37 90 9 56 51 34 73 rlinecurve
          -73 31 rlineto
          -26 callsubr
          -267 113 -87 100 -17 hvcurveto
          -14 -78 -64 callsubr
        </CharString>
        <CharString name="D">
          53 0 66 591 63 hstem
          90 85 280 86 vstem
          -43 callsubr
          130 vlineto
          27 callsubr
          -1 -63 rmoveto
          33 callsubr
          591 hlineto
          endchar
        </CharString>
        <CharString name="E">
          -10 callsubr
          hstem
          90 85 vstem
          -78 callsubr
          endchar
        </CharString>
        <CharString name="Eacute">
          -10 callsubr
          62 20 callsubr
          -80 callsubr
          -204 472 -68 callsubr
        </CharString>
        <CharString name="Ecircumflex">
          -10 callsubr
          57 -21 139 -80 callsubr
          -144 493 -83 callsubr
        </CharString>
        <CharString name="Edieresis">
          -10 callsubr
          86 -21 90 -80 callsubr
          -199 452 -86 callsubr
        </CharString>
        <CharString name="Egrave">
          -10 callsubr
          59 20 callsubr
          -80 callsubr
          -248 572 -33 callsubr
        </CharString>
        <CharString name="Eth">
          63 0 66 285 65 241 63 hstem
          100 85 280 86 vstem
          30 351 rmoveto
          70 -351 130 hlineto
          27 callsubr
          -128 -304 -70 hlineto
          339 -65 rmoveto
          65 -184 241 42 vlineto
          33 callsubr
          285 hlineto
          endchar
        </CharString>
        <CharString name="Euro">
          -18 -15 64 193 60 87 60 199 62 hstem
          108 81 vstem
          439 449 rmoveto
          -245 hlineto
          137 16 52 62 87 hhcurveto
          49 33 -20 -41 34 hvcurveto
          52 47 rlineto
          45 -43 -47 31 -81 hhcurveto
          -97 -109 -50 -211 -26 hvcurveto
          -74 hlineto
          -15 -60 rlineto
          84 hlineto
          -1 -15 0 -15 -16 vvcurveto
          -14 0 -14 1 -13 vhcurveto
          -69 hlineto
          -15 -60 rlineto
          88 hlineto
          -214 25 121 -43 84 hhcurveto
          66 53 21 47 41 hvcurveto
          -51 47 rlineto
          -32 -27 -33 -19 -46 hhcurveto
          -73 -62 50 143 -17 hvcurveto
          194 hlineto
          15 60 rlineto
          -213 hlineto
          -1 13 0 13 15 vvcurveto
          16 0 15 1 15 vhcurveto
          234 hlineto
          endchar
        </CharString>
        <CharString name="F">
          -88 21 -21 312 68 272 68 hstem
          90 85 vstem
          395 380 rmoveto
          -220 272 260 68 -345 67 callsubr
          312 220 hlineto
          endchar
        </CharString>
        <CharString name="G">
          40 -14 66 -31 -21 329 68 274 65 hstemhm
          70 87 288 76 hintmask 10111100
          521 397 rmoveto
          -199 -68 123 -217 hlineto
          -41 -27 -42 -19 -54 hhcurveto
          -100 -65 73 236 224 69 86 105 61 34 -31 -50 22 hvcurveto
          72 33 rlineto
          71 -35 -59 42 -98 hhcurveto
          -134 -124 -89 -286 -283 108 -92 132 53 51 18 41 36 hvcurveto
          hintmask 01111100
          5 -45 rlineto
          66 hlineto
          endchar
        </CharString>
        <CharString name="H">
          62 21 -21 330 68 322 -20 hstem
          90 85 270 85 vstem
          445 -16 callsubr
          -322 -270 322 -85 67 callsubr
          330 270 -330 85 720 vlineto
          endchar
        </CharString>
        <CharString name="I">
          -293 42 callsubr
          85 vstem
          -44 callsubr
          endchar
        </CharString>
        <CharString name="IJ">
          115 -14 70 -35 -21 720 24 callsubr
          328 85 hintmask 01110000
          -44 callsubr
          hintmask 10101000
          328 -550 -55 callsubr
          endchar
        </CharString>
        <CharString name="Iacute">
          -9 callsubr
          -104 82 -68 callsubr
        </CharString>
        <CharString name="Icircumflex">
          -8 callsubr
          77 -21 139 -47 callsubr
          -43 106 -83 callsubr
        </CharString>
        <CharString name="Idieresis">
          -8 callsubr
          106 -21 90 -47 callsubr
          -97 65 -86 callsubr
        </CharString>
        <CharString name="Igrave">
          -9 callsubr
          -136 185 -33 callsubr
        </CharString>
        <CharString name="Itilde">
          -8 callsubr
          82 68 -34 68 -50 callsubr
          hintmask 00010000
          -104 96 -101 callsubr
        </CharString>
        <CharString name="J">
          -150 -14 70 664 -20 hstem
          238 85 vstem
          238 170 -55 callsubr
          endchar
        </CharString>
        <CharString name="Jcircumflex">
          -150 -14 70 664 -20 77 65 callsubr
          hstemhm
          238 85 hintmask 11001000
          238 170 -55 callsubr
          hintmask 00110000
          41 106 -83 callsubr
        </CharString>
        <CharString name="K">
          -15 42 callsubr
          85 vstem
          528 hmoveto
          -283 377 251 343 rlineto
          -95 hlineto
          -226 -314 rlineto
          314 -85 67 callsubr
          335 vlineto
          249 -335 rlineto
          endchar
        </CharString>
        <CharString name="L">
          -86 0 74 646 -20 hstem
          90 85 vstem
          32 callsubr
          endchar
        </CharString>
        <CharString name="Ldotaccent">
          -86 0 74 316 -21 97 -20 274 24 callsubr
          126 92 hintmask 10011000
          32 callsubr
          hintmask 01100100
          218 -351 rmoveto
          56 callsubr
        </CharString>
        <CharString name="Lslash">
          -76 0 74 646 -20 hstem
          100 85 vstem
          100 -16 callsubr
          -322 vlineto
          -80 -47 29 -57 51 29 rlineto
          -323 362 74 -277 300 vlineto
          165 100 -34 54 -131 -79 rlineto
          271 vlineto
          endchar
        </CharString>
        <CharString name="M">
          189 42 callsubr
          81 402 84 vstem
          416 95 rmoveto
          157 477 rlineto
          -572 84 720 -110 vlineto
          -166 -516 -180 516 rlineto
          -111 -720 81 572 hlineto
          170 -477 rlineto
          endchar
        </CharString>
        <CharString name="N">
          43 42 callsubr
          77 269 75 vstem
          -62 callsubr
          endchar
        </CharString>
        <CharString name="Nacute">
          43 -42 callsubr
          79 20 callsubr
          -20 -28 callsubr
          hintmask 00110000
          -249 82 -68 callsubr
        </CharString>
        <CharString name="Ntilde">
          43 -42 callsubr
          84 68 -34 68 -28 callsubr
          hintmask 00010000
          -269 98 -101 callsubr
        </CharString>
        <CharString name="O">
          4 callsubr
          hstem
          70 87 344 87 vstem
          -107 callsubr
          endchar
        </CharString>
        <CharString name="OE">
          336 -15 65 -50 50 -50 65 268 64 258 65 -50 50 -50 65 hstemhm
          70 87 344 83 hintmask 0011100110000000
          834 65 rmoveto
          -330 hlineto
          45 55 31 86 4 127 rrcurveto
          220 64 -220 hlineto
          -5 121 -30 83 -45 54 rrcurveto
          330 65 -420 hlineto
          hintmask 1001001110000000
          10 -27 -29 5 -29 hhcurveto
          -31 callsubr
          -279 127 -96 132 hvcurveto
          hintmask 0101100110000000
          29 29 5 10 27 hvcurveto
          420 hlineto
          hintmask 0011010110000000
          -677 360 rmoveto
          -74 callsubr
          vhcurveto
          hintmask 1001100110000000
          -75 callsubr
          endchar
        </CharString>
        <CharString name="Oacute">
          -73 callsubr
          128 442 -68 callsubr
        </CharString>
        <CharString name="Ocircumflex">
          4 callsubr
          42 -21 139 -100 callsubr
          172 466 -83 callsubr
        </CharString>
        <CharString name="Odieresis">
          4 callsubr
          71 -21 90 -100 callsubr
          116 425 -86 callsubr
        </CharString>
        <CharString name="Ograve">
          -73 callsubr
          59 545 -33 callsubr
        </CharString>
        <CharString name="Oslash">
          100 -87 -21 93 65 620 65 91 -20 9 callsubr
          -164 44 -100 62 -56 vhcurveto
          -47 -128 63 -20 41 112 rlineto
          -13 31 32 -6 33 hhcurveto
          132 127 96 279 162 -43 101 -62 55 hvcurveto
          48 128 -63 20 -42 -111 rlineto
          14 -31 -33 6 -33 hhcurveto
          -31 callsubr
          hvcurveto
          87 hmoveto
          202 58 108 114 28 25 -7 -13 21 vhcurveto
          -194 -536 rlineto
          -35 52 -17 82 112 vvcurveto
          344 hmoveto
          -201 -58 -109 -114 -29 -24 7 13 -22 vhcurveto
          195 534 rlineto
          34 -52 18 -82 -110 vvcurveto
          endchar
        </CharString>
        <CharString name="Otilde">
          4 callsubr
          47 68 -34 68 -106 callsubr
          hintmask 00010000
          109 456 -101 callsubr
        </CharString>
        <CharString name="P">
          -37 21 -21 260 65 330 65 34 callsubr
          260 29 callsubr
          2 -65 12 callsubr
        </CharString>
        <CharString name="Q">
          100 -147 -21 153 65 620 65 9 callsubr
          -273 121 -97 129 -5 vhcurveto
          179 -153 57 80 -147 88 rlineto
          98 35 81 104 221 vvcurveto
          -104 callsubr
          endchar
        </CharString>
        <CharString name="R">
          -1 21 18 callsubr
          hstem
          90 85 227 87 vstem
          -93 callsubr
          endchar
        </CharString>
        <CharString name="Racute">
          -1 21 18 callsubr
          59 20 callsubr
          -67 callsubr
          57 147 -68 callsubr
        </CharString>
        <CharString name="Rcaron">
          -1 21 18 callsubr
          65 -21 139 -67 callsubr
          101 178 7 callsubr
        </CharString>
        <CharString name="Rcommaaccent">
          -1 37 callsubr
          101 18 callsubr
          25 callsubr
          227 87 hintmask 00111110
          -93 callsubr
          hintmask 11000000
          183 -804 -21 callsubr
        </CharString>
        <CharString name="S">
          -10 -15 68 616 66 hstem
          73 83 247 87 vstem
          284 669 rmoveto
          71 37 -33 -55 23 hvcurveto
          74 26 rlineto
          79 -35 -58 49 -114 hhcurveto
          -132 -77 -80 -102 -91 50 -61 108 -44 hvcurveto
          124 -50 48 -23 -102 vvcurveto
          -97 -72 -32 -63 -96 -38 52 53 -19 vhcurveto
          -72 -27 rlineto
          -74 26 66 -72 132 hhcurveto
          130 93 92 110 141 -90 49 -103 40 hvcurveto
          -106 41 -35 31 70 vvcurveto
          75 54 35 74 vhcurveto
          endchar
        </CharString>
        <CharString name="T">
          -83 21 -21 646 74 hstem
          194 85 vstem
          455 -16 callsubr
          -435 -74 174 -646 85 646 176 hlineto
          endchar
        </CharString>
        <CharString name="Thorn">
          3 21 -21 135 65 330 65 125 -20 34 callsubr
          135 29 callsubr
          -77 125 hlineto
          79 -190 12 callsubr
        </CharString>
        <CharString name="U">
          15 callsubr
          hstem
          85 85 273 81 vstem
          -92 callsubr
          endchar
        </CharString>
        <CharString name="Uacute">
          -60 callsubr
          94 82 -68 callsubr
        </CharString>
        <CharString name="Ucircumflex">
          15 callsubr
          74 -21 139 -88 callsubr
          135 103 -83 callsubr
        </CharString>
        <CharString name="Udieresis">
          15 callsubr
          106 -21 90 -88 callsubr
          81 65 -86 callsubr
        </CharString>
        <CharString name="Ugrave">
          -60 callsubr
          23 185 -33 callsubr
        </CharString>
        <CharString name="V">
          -33 -6 callsubr
          437 -16 callsubr
          -172 -659 -167 659 rlineto
          -88 hlineto
          197 -720 rlineto
          114 hlineto
          194 720 rlineto
          endchar
        </CharString>
        <CharString name="W">
          201 -6 callsubr
          656 -16 callsubr
          -94 -629 -119 536 rlineto
          -109 hlineto
          -127 -538 -95 631 rlineto
          -87 hlineto
          120 -720 rlineto
          109 hlineto
          131 536 127 -536 rlineto
          102 hlineto
          120 720 rlineto
          endchar
        </CharString>
        <CharString name="X">
          -8 -6 callsubr
          508 -16 callsubr
          -88 hlineto
          -139 -268 -133 268 rlineto
          -95 hlineto
          179 -348 -197 -372 rlineto
          87 hlineto
          152 292 144 -292 rlineto
          97 hlineto
          -195 375 rlineto
          endchar
        </CharString>
        <CharString name="Y">
          -46 -6 callsubr
          216 84 vstem
          -19 callsubr
          endchar
        </CharString>
        <CharString name="Yacute">
          -46 -42 callsubr
          79 20 callsubr
          -20 hstemhm
          216 84 hintmask 11001000
          -19 callsubr
          hintmask 00110000
          -274 82 -68 callsubr
        </CharString>
        <CharString name="Z">
          -58 0 67 586 67 hstem
          450 648 rmoveto
          72 -387 -67 299 vlineto
          -322 -578 rlineto
          -75 400 67 -311 vlineto
          endchar
        </CharString>
        <CharString name="a">
          -24 callsubr
          hstem
          -98 callsubr
          endchar
        </CharString>
        <CharString name="aacute">
          -57 callsubr
          45 452 -56 callsubr
        </CharString>
        <CharString name="acircumflex">
          -24 callsubr
          98 -21 148 -85 callsubr
          105 497 -82 callsubr
        </CharString>
        <CharString name="acute">
          -288 629 48 callsubr
          hstem
          20 651 -56 callsubr
        </CharString>
        <CharString name="acute.cap">
          51 callsubr
          45 802 -68 callsubr
        </CharString>
        <CharString name="adieresis">
          -24 callsubr
          136 -21 90 -85 callsubr
          50 456 -86 callsubr
        </CharString>
        <CharString name="ae">
          234 0 67 68 64 53 65 176 67 hstem
          732 67 rmoveto
          -226 hlineto
          -58 185 rlineto
          250 65 -271 hlineto
          -55 176 rlineto
          342 67 -461 hlineto
          -243 -560 rlineto
          83 hlineto
          56 135 rlineto
          253 hlineto
          40 -135 rlineto
          290 hlineto
          -435 488 rmoveto
          86 -289 rlineto
          -207 hlineto
          endchar
        </CharString>
        <CharString name="agrave">
          -57 callsubr
          20 576 -34 callsubr
        </CharString>
        <CharString name="ampersand">
          139 -10 65 -60 -21 675 61 hstemhm
          80 83 -53 78 207 74 hintmask 10101100
          528 357 rmoveto
          -4 -59 -13 -57 -22 -49 -169 172 rcurveline
          96 60 53 50 90 vvcurveto
          76 -65 70 -114 -121 -59 -81 -81 -70 45 -50 58 -58 vhcurveto
          hintmask 10110100
          -83 -54 -50 -49 -94 vvcurveto
          -104 88 -79 121 93 69 34 55 49 vhcurveto
          hintmask 01110100
          104 -105 54 47 -117 118 32 59 19 73 8 78 rlinecurve
          hintmask 10110100
          -299 -294 rmoveto
          -102 -36 66 59 64 27 35 68 46 hvcurveto
          192 -196 rlineto
          -45 -36 -50 -29 -63 hhcurveto
          hintmask 10101100
          -113 498 rmoveto
          61 36 35 68 56 47 -36 -52 -58 -25 -35 -94 -59 vhcurveto
          -66 69 -22 31 44 vvcurveto
          endchar
        </CharString>
        <CharString name="aring">
          -21 21 -21 135 64 528 -20 69 -20 hstem
          145 63 120 63 vstem
          527 hmoveto
          -208 557 rlineto
          42 16 30 36 53 vvcurveto
          10 callsubr
          -53 30 -37 43 -16 vhcurveto
          -208 -556 -90 callsubr
          105 398 -45 callsubr
          endchar
        </CharString>
        <CharString name="asciicircum">
          -58 421 -21 320 -20 hstem
          40 400 rmoveto
          84 hlineto
          128 258 124 -258 rlineto
          84 hlineto
          -163 320 rlineto
          -90 hlineto
          endchar
        </CharString>
        <CharString name="asciitilde">
          2 259 75 -27 75 hstemhm
          hintmask 10000000
          375 259 rmoveto
          47 50 22 45 47 hvcurveto
          -50 53 rlineto
          -26 -29 -24 -19 -41 hhcurveto
          hintmask 01000000
          -63 -35 48 -93 hhcurveto
          -47 -50 -22 -45 -47 hvcurveto
          50 -53 rlineto
          26 29 24 19 41 hhcurveto
          hintmask 10000000
          63 35 -48 93 hhcurveto
          endchar
        </CharString>
        <CharString name="asterisk">
          -88 404 -21 352 -20 hstem
          275 735 rmoveto
          -80 hlineto
          16 -152 -138 60 -24 -72 146 -31 -101 -114 64 -43 77 130 77 -129 65 42 -102 114 145 32 -23 72 -139 -60 rlineto
          endchar
        </CharString>
        <CharString name="at">
          362 -91 61 130 51 357 55 115 57 hstem
          80 79 124 78 400 79 vstem
          654 98 rmoveto
          121 65 142 131 245 -144 119 -210 -175 -231 -112 -311 -256 162 -147 221 74 44 12 11 41 hvcurveto
          -16 57 rlineto
          -11 -45 -34 -8 -66 hhcurveto
          -162 -140 115 226 256 182 111 145 180 95 -114 -194 -144 -53 -75 -57 -37 -20 22 60 11 1 16 2 14 hvcurveto
          30 240 rlineto
          34 -39 -40 15 -58 hhcurveto
          -155 -52 -157 -124 -133 67 -49 72 70 43 39 45 18 hvcurveto
          -43 5 30 -43 66 hhcurveto
          -213 59 rmoveto
          -41 -39 21 97 93 23 140 112 28 14 -6 -12 13 hvcurveto
          -26 -219 rlineto
          -86 -10 -34 -28 -40 hhcurveto
          endchar
        </CharString>
        <CharString name="atilde">
          -24 callsubr
          102 68 -34 68 -95 callsubr
          hintmask 00001000
          43 477 -39 callsubr
        </CharString>
        <CharString name="b">
          -12 0 65 197 62 176 60 hstemhm
          90 82 220 82 -64 64 -64 86 hintmask 11110010
          -49 callsubr
          166 vlineto
          142 98 41 115 88 -56 44 -69 7 hvcurveto
          hintmask 11110100
          61 9 42 45 66 vvcurveto
          95 -60 50 -156 vhcurveto
          17 -298 rmoveto
          102 33 -38 -68 -82 -63 -9 -76 hvcurveto
          -99 197 hlineto
          94 238 rmoveto
          hintmask 11111000
          85 41 -21 -64 -59 -32 -32 -88 hvcurveto
          -100 176 hlineto
          endchar
        </CharString>
        <CharString name="backslash">
          61 callsubr
          57 -16 callsubr
          -69 -15 220 -805 69 15 rlineto
          endchar
        </CharString>
        <CharString name="bar">
          17 callsubr
          -920 82 920 vlineto
          endchar
        </CharString>
        <CharString name="braceleft">
          52 callsubr
          113 75 vstem
          34 283 rmoveto
          48 31 -24 -64 hvcurveto
          -198 vlineto
          -113 43 -54 131 vhcurveto
          60 vlineto
          -79 -20 22 70 hvcurveto
          191 vlineto
          87 -28 42 -51 19 vhcurveto
          51 18 28 42 87 vvcurveto
          190 vlineto
          70 20 22 79 vhcurveto
          60 vlineto
          -131 -43 -54 -113 hvcurveto
          -197 vlineto
          -64 -31 -24 -48 vhcurveto
          endchar
        </CharString>
        <CharString name="braceright">
          52 callsubr
          152 75 vstem
          306 358 rmoveto
          -48 -31 24 64 hvcurveto
          197 vlineto
          113 -43 54 -131 vhcurveto
          -60 vlineto
          79 20 -22 -70 hvcurveto
          -190 vlineto
          -87 28 -42 51 -18 vhcurveto
          -51 -19 -28 -42 -87 vvcurveto
          -191 vlineto
          -70 -20 -22 -79 vhcurveto
          -60 vlineto
          131 43 54 113 hvcurveto
          198 vlineto
          64 31 24 48 vhcurveto
          endchar
        </CharString>
        <CharString name="bracketleft">
          54 callsubr
          75 78 vstem
          278 -102 rmoveto
          -125 844 125 68 -203 -980 203 hlineto
          endchar
        </CharString>
        <CharString name="bracketright">
          54 callsubr
          187 78 vstem
          62 -170 rmoveto
          203 980 -203 -68 125 -844 -125 hlineto
          endchar
        </CharString>
        <CharString name="brokenbar">
          17 callsubr
          -380 82 380 vlineto
          -82 -540 rmoveto
          -380 82 380 vlineto
          endchar
        </CharString>
        <CharString name="bullet">
          -243 273 -21 145 -20 hstem
          235 252 rmoveto
          145 -155 -145 vlineto
          endchar
        </CharString>
        <CharString name="c">
          5 -15 67 457 66 hstem
          70 85 vstem
          439 133 rmoveto
          -25 callsubr
          -229 134 -66 104 99 67 47 64 33 hvcurveto
          endchar
        </CharString>
        <CharString name="caron">
          -182 640 66 callsubr
          hstem
          188 688 6 callsubr
        </CharString>
        <CharString name="caron.cap">
          -182 785 65 callsubr
          hstem
          188 833 7 callsubr
        </CharString>
        <CharString name="ccedilla">
          5 -241 59 691 66 hstem
          70 85 179 73 vstem
          407 23 callsubr
          2 37 87 7 59 44 31 59 rlinecurve
          -68 37 rlineto
          -25 callsubr
          -197 98 -76 94 -17 hvcurveto
          -14 -79 -64 callsubr
        </CharString>
        <CharString name="cedilla">
          -279 -241 59 202 -20 hstem
          176 73 vstem
          249 23 callsubr
          5 71 rlineto
          -65 hlineto
          -20 -109 -64 callsubr
        </CharString>
        <CharString name="cent">
          -18 -114 -21 825 -20 hstem
          63 84 97 72 vstem
          147 271 rmoveto
          152 56 68 82 48 33 -18 -50 34 vhcurveto
          62 45 -41 54 -45 25 -60 6 rlinecurve
          137 -72 -139 vlineto
          -104 -18 -77 -90 -174 vvcurveto
          -181 79 -82 102 -16 vhcurveto
          -125 72 125 vlineto
          71 10 52 42 34 53 -65 42 rcurveline
          -57 -35 -33 -27 -57 hhcurveto
          -83 -53 66 152 hvcurveto
          endchar
        </CharString>
        <CharString name="circumflex">
          -182 638 66 callsubr
          hstem
          188 696 -82 callsubr
        </CharString>
        <CharString name="circumflex.cap">
          -182 777 65 callsubr
          hstem
          188 826 -83 callsubr
        </CharString>
        <CharString name="colon">
          -328 21 -21 540 53 callsubr
          100 440 11 callsubr
          endchar
        </CharString>
        <CharString name="comma">
          -328 -131 -21 252 -20 hstem
          165 1 rmoveto
          99 -100 -100 vlineto
          -26 -152 rlineto
          56 hlineto
          endchar
        </CharString>
        <CharString name="commaaccent">
          -392 37 callsubr
          hstem
          136 -149 -21 callsubr
        </CharString>
        <CharString name="copyright">
          285 -15 54 116 52 309 51 114 54 hstem
          59 68 152 67 369 68 vstem
          492 261 rmoveto
          -30 -9 -16 -24 -41 hhcurveto
          -39 -41 35 119 119 40 36 39 40 12 -25 -31 10 hvcurveto
          59 21 rlineto
          48 -20 -36 38 -64 hhcurveto
          -65 -82 -41 -165 -168 82 -38 59 71 41 36 48 19 hvcurveto
          232 121 rmoveto
          263 -188 112 -174 -174 -188 -112 -263 -263 188 -112 174 174 188 112 263 vhcurveto
          -68 hmoveto
          -216 -144 -105 -150 -150 -144 105 216 216 144 105 150 150 144 -105 -216 vhcurveto
          endchar
        </CharString>
        <CharString name="currency">
          42 91 61 -52 -21 453 62 3 -20 hstemhm
          64 70 329 70 hintmask 01101100
          41 127 rmoveto
          48 -48 62 62 rlineto
          hintmask 10101100
          -35 43 55 -15 50 hhcurveto
          50 55 16 35 44 hvcurveto
          hintmask 01011100
          63 -63 48 48 -66 65 rlineto
          25 38 15 48 62 vvcurveto
          59 -15 48 -23 38 vhcurveto
          64 64 -48 48 -60 -60 rlineto
          hintmask 10101100
          39 -44 -56 18 -52 hhcurveto
          -52 -56 -18 -37 -44 hvcurveto
          hintmask 10011100
          -58 58 -48 -48 61 -62 rlineto
          -24 -38 -14 -49 -60 vvcurveto
          -63 16 -49 25 -37 vhcurveto
          29 149 rmoveto
          hintmask 10101100
          119 68 73 97 97 67 -73 -119 -119 -66 -69 -97 -97 -69 69 119 vhcurveto
          endchar
        </CharString>
        <CharString name="d">
          30 0 63 436 61 hstem
          90 81 266 81 2 callsubr
          144 vlineto
          26 callsubr
          2 -61 rmoveto
          40 callsubr
          436 hlineto
          endchar
        </CharString>
        <CharString name="degree">
          -203 424 52 182 52 hstem
          40 68 140 67 vstem
          40 566 rmoveto
          -94 65 -48 73 73 64 48 94 94 -64 50 -73 -73 -65 -50 -94 vhcurveto
          68 hmoveto
          55 26 37 44 44 26 -37 -55 -55 -26 -35 -44 -44 -26 35 55 vhcurveto
          endchar
        </CharString>
        <CharString name="dieresis">
          -198 676 -21 90 -20 hstem
          125 655 -86 callsubr
        </CharString>
        <CharString name="dieresis.cap">
          -198 806 -21 90 -20 hstem
          125 785 -86 callsubr
        </CharString>
        <CharString name="divide">
          -18 72 -21 237 70 231 -20 hstem
          320 51 11 callsubr
          100 438 11 callsubr
          255 -201 36 callsubr
          endchar
        </CharString>
        <CharString name="dollar">
          -18 -114 -21 955 -20 hstem
          78 81 85 72 91 83 vstem
          280 644 rmoveto
          75 40 -47 -52 16 hvcurveto
          74 14 -22 68 -53 66 -94 14 rlinecurve
          113 -72 -112 vlineto
          -105 -13 -61 -69 -98 vvcurveto
          -75 43 -65 103 -41 vhcurveto
          125 -50 58 -21 -101 vvcurveto
          -88 -74 -34 -53 -94 -42 55 52 -15 vhcurveto
          -78 -14 20 -66 62 -80 111 -13 rlinecurve
          -122 72 123 vlineto
          107 16 67 85 93 vvcurveto
          134 -92 51 -97 35 vhcurveto
          -118 43 -24 37 55 vvcurveto
          75 57 32 64 vhcurveto
          endchar
        </CharString>
        <CharString name="dotaccentcmb">
          -557 679 -21 97 -20 hstem
          -92 92 vstem
          658 vmoveto
          56 callsubr
        </CharString>
        <CharString name="dotaccentcmb.cap">
          -557 809 -21 97 -20 hstem
          -92 92 vstem
          788 vmoveto
          56 callsubr
        </CharString>
        <CharString name="dotlessi">
          -2 callsubr
        </CharString>
        <CharString name="dotlessj">
          -241 64 callsubr
          hstem
          150 82 vstem
          150 -15 callsubr
          endchar
        </CharString>
        <CharString name="e">
          -11 callsubr
          hstem
          90 82 vstem
          -77 callsubr
          endchar
        </CharString>
        <CharString name="eacute">
          -40 callsubr
          -216 399 -56 callsubr
        </CharString>
        <CharString name="ecircumflex">
          -11 callsubr
          78 -21 148 -79 callsubr
          -138 444 -82 callsubr
        </CharString>
        <CharString name="edieresis">
          -11 callsubr
          116 -21 90 -79 callsubr
          -195 403 -86 callsubr
        </CharString>
        <CharString name="egrave">
          -40 callsubr
          -211 523 -34 callsubr
        </CharString>
        <CharString name="eight">
          -18 -10 62 600 58 hstemhm
          54 86 -57 79 214 81 -57 86 hintmask 11100100
          54 177 rmoveto
          -104 84 -83 132 132 84 82 112 103 -69 54 -71 35 vhcurveto
          hintmask 11011000
          53 26 58 54 81 vvcurveto
          125 -92 48 -95 -95 -92 -56 -124 -84 57 -46 47 -26 vhcurveto
          hintmask 11100100
          -54 -24 -79 -60 -113 vvcurveto
          346 7 rmoveto
          -82 -53 -50 -77 -77 -53 56 76 92 47 43 50 30 vhcurveto
          89 -40 74 -31 -94 vvcurveto
          hintmask 11011000
          -238 351 rmoveto
          85 51 32 57 57 49 -30 -87 -66 -38 -40 -45 -28 vhcurveto
          -65 28 -66 32 74 vvcurveto
          endchar
        </CharString>
        <CharString name="emdash">
          42 287 72 hstem
          600 287 rmoveto
          72 -600 -72 vlineto
          endchar
        </CharString>
        <CharString name="endash">
          -158 287 72 hstem
          400 287 rmoveto
          72 -400 -72 vlineto
          endchar
        </CharString>
        <CharString name="equal">
          -18 191 70 130 70 hstem
          475 391 36 callsubr
          410 -200 36 callsubr
          endchar
        </CharString>
        <CharString name="eth">
          40 0 63 187 63 186 61 hstem
          100 81 266 81 vstem
          100 hmoveto
          144 hlineto
          26 callsubr
          -145 -247 -60 -63 60 hlineto
          244 hmoveto
          63 -163 186 66 vlineto
          40 callsubr
          187 hlineto
          endchar
        </CharString>
        <CharString name="exclam">
          -288 -42 callsubr
          hstemhm
          93 80 -80 92 hintmask 11100000
          168 240 rmoveto
          10 480 rlineto
          -90 hlineto
          10 -480 rlineto
          hintmask 11010000
          87 -240 11 callsubr
          endchar
        </CharString>
        <CharString name="exclamdown">
          -288 -159 -23 callsubr
          hstemhm
          85 92 -80 80 hintmask 11010000
          102 300 rmoveto
          -10 -480 rlineto
          90 hlineto
          -10 480 rlineto
          hintmask 11100000
          -87 240 rmoveto
          -100 100 100 vlineto
          endchar
        </CharString>
        <CharString name="f">
          -107 21 -21 242 65 186 67 hstem
          90 82 vstem
          382 307 rmoveto
          -210 186 239 67 -321 -560 82 242 210 hlineto
          endchar
        </CharString>
        <CharString name="five">
          -18 -10 64 337 59 186 64 hstem
          107 76 204 83 vstem
          74 98 rmoveto
          -63 30 59 -45 93 hhcurveto
          128 86 98 138 175 -84 49 -96 -44 -39 -16 -21 -30 hvcurveto
          12 223 rlineto
          242 64 -314 hlineto
          -19 -350 66 -7 rlineto
          37 36 37 11 32 hhcurveto
          66 52 -41 -120 -143 -78 -33 -52 -58 -38 34 40 -16 hvcurveto
          endchar
        </CharString>
        <CharString name="foundryicon">
          306 21 -21 576 -20 hstem
          720 hmoveto
          288 -288 288 -288 -576 vlineto
          576 432 rmoveto
          144 -144 -144 vlineto
          endchar
        </CharString>
        <CharString name="four">
          -18 21 -21 137 65 506 -20 hstem
          312 77 vstem
          331 444 rmoveto
          -19 -106 rlineto
          -136 -163 vlineto
          145 492 -74 14 -149 -499 rlineto
          -72 241 -137 77 137 96 65 -96 242 vlineto
          endchar
        </CharString>
        <CharString name="g">
          17 -15 63 -27 -21 246 63 204 62 hstemhm
          70 83 273 72 hintmask 10111100
          489 480 rmoveto
          49 -30 -58 46 -91 hhcurveto
          -102 -138 -65 -230 -220 120 -75 108 58 56 30 41 25 hvcurveto
          hintmask 01111100
          5 -56 rlineto
          56 309 -190 -63 118 -125 hlineto
          hintmask 10111100
          -37 -26 -43 -36 -57 hhcurveto
          -73 -74 55 177 183 87 50 71 60 32 -25 -44 27 hvcurveto
          endchar
        </CharString>
        <CharString name="germandbls">
          465 -15 64 456 62 hstem
          75 78 233 81 104 -72 callsubr
          427 -32 -89 callsubr
          endchar
        </CharString>
        <CharString name="grave">
          -288 629 48 callsubr
          hstem
          105 775 -34 callsubr
        </CharString>
        <CharString name="grave.cap">
          51 callsubr
          74 905 -33 callsubr
        </CharString>
        <CharString name="greater">
          59 callsubr
          475 281 rmoveto
          90 vlineto
          -392 162 -23 -69 352 -139 -352 -157 23 -69 rlineto
          endchar
        </CharString>
        <CharString name="guillemotleft">
          -68 -3 callsubr
          286 -225 -13 callsubr
          endchar
        </CharString>
        <CharString name="guillemotright">
          -68 35 callsubr
          430 306 -12 callsubr
          -72 225 -12 callsubr
          endchar
        </CharString>
        <CharString name="guilsinglleft">
          -247 -3 callsubr
          endchar
        </CharString>
        <CharString name="guilsinglright">
          -247 35 callsubr
          251 306 -12 callsubr
          endchar
        </CharString>
        <CharString name="h">
          49 21 -21 251 67 242 -20 hstem
          90 82 262 83 vstem
          434 -20 callsubr
          -242 -262 242 -82 -560 58 callsubr
          560 vlineto
          endchar
        </CharString>
        <CharString name="hbar">
          69 21 -21 251 67 105 59 78 -20 hstem
          100 82 262 83 vstem
          444 -20 callsubr
          -78 -262 78 -82 -78 -60 -59 60 -423 58 callsubr
          423 60 59 -60 78 vlineto
          -345 -137 rmoveto
          262 -105 -262 hlineto
          endchar
        </CharString>
        <CharString name="hyphen">
          13 callsubr
        </CharString>
        <CharString name="i">
          -2 callsubr
        </CharString>
        <CharString name="iacute">
          -18 callsubr
          89 -21 167 -46 callsubr
          -101 91 -56 callsubr
        </CharString>
        <CharString name="icircumflex">
          -18 callsubr
          98 -21 148 -46 callsubr
          -41 136 -82 callsubr
        </CharString>
        <CharString name="idieresis">
          -18 callsubr
          136 -21 90 -46 callsubr
          -96 95 -86 callsubr
        </CharString>
        <CharString name="igrave">
          -18 callsubr
          89 -21 167 -46 callsubr
          -126 215 -34 callsubr
        </CharString>
        <CharString name="ij">
          21 -13 68 -34 -21 560 49 callsubr
          240 82 hintmask 01110000
          -53 callsubr
          hintmask 10101000
          31 -483 -17 callsubr
        </CharString>
        <CharString name="itilde">
          -18 callsubr
          102 68 -34 68 -51 callsubr
          hintmask 00010000
          -103 116 -101 callsubr
        </CharString>
        <CharString name="j">
          -177 64 callsubr
          hstem
          214 82 vstem
          5 77 -17 callsubr
        </CharString>
        <CharString name="jcircumflex">
          -177 64 callsubr
          98 66 callsubr
          hstemhm
          214 82 hintmask 11001000
          214 -15 callsubr
          hintmask 00110000
          40 136 -82 callsubr
        </CharString>
        <CharString name="k">
          -35 callsubr
        </CharString>
        <CharString name="kcommaaccent">
          -37 37 callsubr
          101 -21 560 -20 hstemhm
          90 81 hintmask 00111000
          -65 callsubr
          hintmask 11000000
          -77 -149 -21 callsubr
        </CharString>
        <CharString name="kgreenlandic">
          -35 callsubr
        </CharString>
        <CharString name="l">
          -97 0 71 489 -20 hstem
          90 82 vstem
          30 callsubr
          endchar
        </CharString>
        <CharString name="ldot">
          -92 0 71 223 -21 100 -20 207 49 callsubr
          hintmask 10011000
          30 callsubr
          hintmask 01100000
          185 -287 11 callsubr
          endchar
        </CharString>
        <CharString name="less">
          59 callsubr
          457 99 rmoveto
          23 69 -352 157 352 139 -23 69 -392 -162 rlineto
          -90 vlineto
          endchar
        </CharString>
        <CharString name="logicalnot">
          -18 162 20 callsubr
          70 hstem
          402 73 vstem
          475 141 rmoveto
          217 -410 -70 337 -147 vlineto
          endchar
        </CharString>
        <CharString name="lslash">
          -289 0 71 489 -20 hstem
          100 82 vstem
          100 -20 callsubr
          -267 vlineto
          -85 -51 36 -57 49 29 rlineto
          -214 351 71 -269 192 vlineto
          177 106 -36 57 -141 -84 rlineto
          218 vlineto
          endchar
        </CharString>
        <CharString name="m">
          161 43 callsubr
          77 382 80 vstem
          407 hmoveto
          142 440 rlineto
          -440 80 560 -115 vlineto
          -148 -468 -161 468 rlineto
          -115 -560 77 440 hlineto
          154 -440 rlineto
          endchar
        </CharString>
        <CharString name="macron">
          -228 666 69 hstem
          300 666 rmoveto
          69 -270 -69 vlineto
          endchar
        </CharString>
        <CharString name="mu">
          -22 -159 -21 170 65 -34 -21 540 -20 hstemhm
          80 80 216 80 hintmask 11011100
          160 -180 rmoveto
          210 vlineto
          -27 22 39 -13 37 hhcurveto
          53 43 26 46 28 hvcurveto
          hintmask 10111100
          4 -62 rlineto
          70 540 -80 -402 hlineto
          hintmask 11011100
          -54 -31 -35 -29 -49 hhcurveto
          -59 -42 25 100 hvcurveto
          360 -80 -720 vlineto
          endchar
        </CharString>
        <CharString name="multiply">
          -18 152 -21 380 -20 hstem
          406 131 rmoveto
          54 54 -136 136 136 136 -54 54 -136 -136 -136 136 -54 -54 136 -136 -136 -136 54 -54 136 136 rlineto
          endchar
        </CharString>
        <CharString name="n">
          22 43 callsubr
          77 248 75 vstem
          -61 callsubr
          endchar
        </CharString>
        <CharString name="nacute">
          22 -52 callsubr
          89 -21 167 -20 -29 callsubr
          hintmask 00110000
          -270 91 -56 callsubr
        </CharString>
        <CharString name="nbspace">
          -258 endchar
        </CharString>
        <CharString name="nine">
          -18 -2 -21 288 63 321 61 hstem
          81 81 236 80 vstem
          133 -23 rmoveto
          183 15 162 134 298 vvcurveto
          187 -60 99 -138 -106 -93 -75 -156 -126 59 -88 112 57 49 27 40 35 vhcurveto
          -24 -186 -104 -91 -142 -13 rrcurveto
          146 286 rmoveto
          -66 -41 45 112 122 60 42 57 83 36 -72 -160 hvcurveto
          -21 vlineto
          -35 -32 -44 -33 -53 hhcurveto
          endchar
        </CharString>
        <CharString name="ntilde">
          22 -52 callsubr
          102 68 -34 68 -29 callsubr
          hintmask 00010000
          -262 116 -101 callsubr
        </CharString>
        <CharString name="numbersign">
          17 21 -21 197 61 189 61 192 -20 hstem
          502 258 rmoveto
          -83 hlineto
          17 189 rlineto
          82 hlineto
          6 61 rlineto
          -83 47 callsubr
          -142 47 callsubr
          -80 hlineto
          -6 -61 rlineto
          81 hlineto
          -17 -189 rlineto
          -80 hlineto
          -4 -61 rlineto
          79 hlineto
          -17 -197 rlineto
          71 hlineto
          17 197 rlineto
          142 hlineto
          -17 -197 rlineto
          71 hlineto
          17 197 rlineto
          84 hlineto
          -275 250 rmoveto
          142 hlineto
          -17 -189 rlineto
          -142 hlineto
          endchar
        </CharString>
        <CharString name="o">
          3 callsubr
          hstem
          1 callsubr
          vstem
          -105 callsubr
          endchar
        </CharString>
        <CharString name="oacute">
          -71 callsubr
          107 371 -56 callsubr
        </CharString>
        <CharString name="ocircumflex">
          3 callsubr
          63 -21 148 -99 callsubr
          167 416 -82 callsubr
        </CharString>
        <CharString name="odieresis">
          3 callsubr
          101 -21 90 -99 callsubr
          112 375 -86 callsubr
        </CharString>
        <CharString name="oe">
          316 -15 66 -51 51 -51 67 185 65 176 67 -50 50 -50 65 hstemhm
          70 84 334 83 hintmask 1001100110000000
          806 317 rmoveto
          -236 hlineto
          -5 77 -24 57 -35 42 rrcurveto
          329 67 -425 hlineto
          hintmask 1001001110000000
          39 callsubr
          -209 123 -86 128 hvcurveto
          hintmask 0101100110000000
          30 30 5 10 28 hvcurveto
          426 hlineto
          hintmask 0011010110000000
          67 -329 vlineto
          36 43 24 61 5 81 rrcurveto
          235 hlineto
          -652 28 rmoveto
          -54 callsubr
          vhcurveto
          hintmask 1001100110000000
          -66 callsubr
          endchar
        </CharString>
        <CharString name="ograve">
          -71 callsubr
          82 495 -34 callsubr
        </CharString>
        <CharString name="one">
          -18 0 69 631 -20 hstem
          268 79 vstem
          456 hmoveto
          69 -109 631 -85 vlineto
          -168 -103 37 -57 137 84 rlineto
          -555 -133 -69 vlineto
          endchar
        </CharString>
        <CharString name="onehalf">
          282 -78 -21 99 60 260 70 -56 56 420 -20 hstemhm
          162 71 461 76 hintmask 11011110
          690 781 14 callsubr
          396 433 -48 callsubr
          hintmask 11101110
          -332 -14 -27 callsubr
        </CharString>
        <CharString name="onequarter">
          50 callsubr
          191 61 429 -20 hstem
          169 71 401 66 vstem
          -36 callsubr
          71 419 -27 callsubr
        </CharString>
        <CharString name="onesuperior">
          -218 420 61 319 -20 hstem
          144 71 vstem
          289 420 -27 callsubr
        </CharString>
        <CharString name="ordfeminine">
          -83 0 70 242 54 153 50 113 53 hstem
          76 79 162 77 vstem
          394 318 rmoveto
          300 vlineto
          80 -65 37 -81 -80 -45 -34 -48 -26 vhcurveto
          70 -27 rlineto
          36 12 32 20 32 hhcurveto
          50 24 -28 -42 hvcurveto
          -43 vlineto
          -158 -83 -38 -105 -67 55 -47 71 57 39 23 33 26 hvcurveto
          7 -50 rlineto
          69 -318 rmoveto
          70 -305 -70 vlineto
          133 366 rmoveto
          -35 -38 13 53 57 38 30 124 hvcurveto
          -112 vlineto
          -23 -20 -33 -18 -36 hhcurveto
          endchar
        </CharString>
        <CharString name="ordmasculine">
          -83 0 70 241 56 311 57 hstem
          70 80 176 79 vstem
          70 521 rmoveto
          -158 79 -52 89 89 78 52 158 158 -79 56 -88 -88 -80 -56 -158 vhcurveto
          80 hmoveto
          108 36 49 52 52 36 -49 -108 -108 -36 -46 -51 -51 -38 46 108 vhcurveto
          240 -521 rmoveto
          70 -303 -70 vlineto
          endchar
        </CharString>
        <CharString name="oslash">
          84 -81 -21 87 66 459 65 78 -20 hstem
          1 callsubr
          vstem
          70 280 rmoveto
          -121 41 -80 60 -46 vhcurveto
          -49 -107 70 -28 45 101 rlineto
          -9 27 28 -5 29 hhcurveto
          128 123 86 209 119 -40 80 -58 46 hvcurveto
          46 101 -68 27 -42 -93 rlineto
          39 callsubr
          hvcurveto
          84 hmoveto
          152 63 78 104 23 21 -4 -8 19 vhcurveto
          -178 -398 rlineto
          -34 38 -18 60 82 vvcurveto
          334 hmoveto
          -151 -63 -78 -104 -21 -20 3 7 -17 vhcurveto
          177 395 rlineto
          31 -39 17 -59 -78 vvcurveto
          endchar
        </CharString>
        <CharString name="otilde">
          3 callsubr
          67 68 -34 68 -103 callsubr
          hintmask 00010000
          105 396 -101 callsubr
        </CharString>
        <CharString name="p">
          -50 21 -21 192 62 244 62 31 callsubr
          192 28 callsubr
          2 -62 22 callsubr
        </CharString>
        <CharString name="paragraph">
          -8 -149 -21 870 -20 hstem
          211 76 87 76 vstem
          287 -170 rmoveto
          870 -76 vlineto
          -50 -98 -17 -146 -154 98 -8 50 hvcurveto
          -545 vlineto
          163 870 rmoveto
          -870 76 870 vlineto
          endchar
        </CharString>
        <CharString name="parenleft">
          55 callsubr
          75 76 vstem
          75 330 rmoveto
          -244 72 -127 74 -114 vhcurveto
          54 25 rlineto
          -67 123 -57 117 220 vvcurveto
          220 57 117 67 123 vhcurveto
          -54 25 rlineto
          -74 -114 -72 -127 -244 vvcurveto
          endchar
        </CharString>
        <CharString name="parenright">
          55 callsubr
          189 76 vstem
          265 330 rmoveto
          244 -72 127 -74 114 vhcurveto
          -54 -25 rlineto
          67 -123 57 -117 -220 vvcurveto
          -220 -57 -117 -67 -123 vhcurveto
          54 -25 rlineto
          74 114 72 127 244 vvcurveto
          endchar
        </CharString>
        <CharString name="percent">
          182 -8 55 -49 -21 294 57 46 55 224 57 12 -20 hstemhm
          60 70 132 69 78 70 132 69 hintmask 0111011111000000
          542 700 rmoveto
          -63 22 -286 -722 62 -23 rlineto
          -195 564 45 callsubr
          vhcurveto
          hintmask 1011101111000000
          -14 callsubr
          279 -382 45 callsubr
          -14 callsubr
          endchar
        </CharString>
        <CharString name="period">
          -328 21 -21 100 53 callsubr
          endchar
        </CharString>
        <CharString name="periodcentered">
          -243 294 -21 100 -20 hstem
          207 273 11 callsubr
          endchar
        </CharString>
        <CharString name="plus">
          -18 143 -21 166 46 callsubr
          122 rmoveto
          78 166 21 callsubr
          endchar
        </CharString>
        <CharString name="plusminus">
          -18 0 70 218 46 callsubr
          142 rmoveto
          78 146 21 callsubr
          244 -288 36 callsubr
          endchar
        </CharString>
        <CharString name="q">
          84 -136 -21 142 66 459 65 hstem
          1 callsubr
          vstem
          461 -157 rmoveto
          63 73 -127 83 rlineto
          96 28 79 87 166 vvcurveto
          -69 callsubr
          -202 115 -87 123 -6 vhcurveto
          -154 295 rmoveto
          -76 callsubr
          endchar
        </CharString>
        <CharString name="question">
          -74 21 -21 670 65 hstem
          203 82 59 83 vstem
          134 574 rmoveto
          53 14 36 43 63 hhcurveto
          70 27 -45 -49 -43 -11 -33 -38 -41 hvcurveto
          -92 -100 rlineto
          -139 82 116 vlineto
          72 80 rlineto
          37 40 33 49 69 vvcurveto
          100 -69 61 -107 -94 -74 -50 -91 -26 vhcurveto
          242 -594 rmoveto
          105 -105 -105 vlineto
          endchar
        </CharString>
        <CharString name="questiondown">
          -74 -195 65 670 -20 hstem
          57 83 59 82 vstem
          350 -34 rmoveto
          -53 -14 -36 -43 -63 hhcurveto
          -70 -27 45 49 43 11 33 38 41 hvcurveto
          92 100 rlineto
          139 -82 -116 vlineto
          -72 -80 rlineto
          -37 -40 -33 -49 -69 vvcurveto
          -100 69 -61 107 94 74 50 91 26 vhcurveto
          -242 594 rmoveto
          -105 105 105 vlineto
          endchar
        </CharString>
        <CharString name="quotedbl">
          -158 523 -21 233 41 callsubr
          -140 rlineto
          50 hlineto
          175 141 rmoveto
          92 -100 -93 vlineto
          25 -140 rlineto
          50 hlineto
          endchar
        </CharString>
        <CharString name="quotedblbase">
          -150 -132 19 callsubr
          211 -22 callsubr
          -172 -22 callsubr
          endchar
        </CharString>
        <CharString name="quotedblleft">
          -141 509 19 callsubr
          340 736 8 callsubr
          -137 153 8 callsubr
          endchar
        </CharString>
        <CharString name="quotedblright">
          -150 5 callsubr
          128 -22 callsubr
          endchar
        </CharString>
        <CharString name="quoteleft">
          -300 509 19 callsubr
          181 736 8 callsubr
          endchar
        </CharString>
        <CharString name="quoteright">
          -300 5 callsubr
          endchar
        </CharString>
        <CharString name="quotesinglbase">
          -300 -132 19 callsubr
          61 -22 callsubr
          endchar
        </CharString>
        <CharString name="quotesingle">
          -308 503 -21 253 41 callsubr
          -160 rlineto
          50 hlineto
          endchar
        </CharString>
        <CharString name="r">
          -24 21 44 callsubr
          hstem
          62 callsubr
          vstem
          -81 callsubr
          endchar
        </CharString>
        <CharString name="rcaron">
          -24 21 44 callsubr
          80 66 callsubr
          hstemhm
          62 callsubr
          hintmask 11100110
          -81 callsubr
          hintmask 00011000
          86 190 6 callsubr
        </CharString>
        <CharString name="rcommaaccent">
          -24 37 callsubr
          101 44 callsubr
          hstemhm
          62 callsubr
          hintmask 00111110
          -81 callsubr
          hintmask 11000000
          154 -647 -21 callsubr
        </CharString>
        <CharString name="registered">
          56 155 53 474 53 hstem
          23 66 263 62 111 66 vstem
          591 445 rmoveto
          208 -156 82 -128 -128 -156 -82 -208 -208 156 -82 128 128 156 82 208 vhcurveto
          -66 hmoveto
          -171 -108 -66 -110 -110 -108 66 171 171 108 66 110 110 108 -66 -171 vhcurveto
          -98 -151 rmoveto
          -68 125 rlineto
          33 15 22 30 41 vvcurveto
          62 -48 33 -60 vhcurveto
          -89 -306 58 112 29 hlineto
          57 -112 rlineto
          -57 259 rmoveto
          30 18 -19 -29 -30 -18 -21 -27 hvcurveto
          -32 99 hlineto
          endchar
        </CharString>
        <CharString name="ring">
          -263 603 38 callsubr
          631 -70 callsubr
        </CharString>
        <CharString name="ring.cap">
          -263 715 38 callsubr
          743 -70 callsubr
        </CharString>
        <CharString name="s">
          -31 -15 64 456 62 hstem
          75 -72 callsubr
          endchar
        </CharString>
        <CharString name="section">
          -18 -101 62 687 62 hstemhm
          84 77 -57 80 173 80 -57 77 hintmask 11010100
          457 309 rmoveto
          86 -57 42 -88 30 vhcurveto
          -89 30 -39 15 56 vvcurveto
          55 44 25 47 58 30 -26 -44 19 vhcurveto
          71 30 rlineto
          64 -27 -62 38 -88 hhcurveto
          -90 -82 -53 -98 -53 23 -41 48 -28 hvcurveto
          hintmask 11101000
          -49 -27 -42 -42 -68 vvcurveto
          -86 57 -46 88 -26 vhcurveto
          96 -28 32 -17 -56 vvcurveto
          -55 -48 -25 -48 -58 -33 28 44 -19 vhcurveto
          -71 -30 rlineto
          -64 27 65 -40 88 hhcurveto
          90 87 53 98 52 -23 40 -49 29 hvcurveto
          hintmask 11100100
          49 27 43 42 69 vvcurveto
          -216 101 rmoveto
          74 -21 65 -17 -75 vvcurveto
          -51 -30 -26 -47 -22 vhcurveto
          -3 1 rlineto
          -75 22 -64 17 74 vvcurveto
          50 29 27 47 22 vhcurveto
          endchar
        </CharString>
        <CharString name="semicolon">
          -328 -131 -21 692 -20 hstem
          165 440 11 callsubr
          100 -439 rmoveto
          99 -100 -101 vlineto
          -23 -151 rlineto
          53 hlineto
          endchar
        </CharString>
        <CharString name="seven">
          -18 21 -21 630 70 hstem
          471 620 rmoveto
          80 -374 -70 298 vlineto
          -262 -630 rlineto
          88 hlineto
          endchar
        </CharString>
        <CharString name="six">
          -18 -10 63 329 63 278 -20 hstem
          82 80 233 81 vstem
          425 723 rmoveto
          -157 -43 -186 -122 -273 vvcurveto
          -187 62 -108 138 101 93 75 156 133 -52 91 -118 -55 -46 -24 -37 -34 vhcurveto
          35 167 129 77 115 35 rrcurveto
          -161 -281 rmoveto
          66 40 -47 -120 -129 -55 -33 -57 -83 -38 74 165 hvcurveto
          23 vlineto
          35 31 43 32 53 hhcurveto
          endchar
        </CharString>
        <CharString name="slash">
          61 callsubr
          -12 -85 rmoveto
          69 -15 220 805 -69 15 rlineto
          endchar
        </CharString>
        <CharString name="space">
          -258 endchar
        </CharString>
        <CharString name="sterling">
          -18 0 66 288 60 234 62 hstem
          148 83 vstem
          331 648 rmoveto
          60 27 -27 -55 23 hvcurveto
          74 26 rlineto
          78 -35 -55 40 -94 hhcurveto
          -95 -88 -59 -130 hvcurveto
          -107 -78 -60 78 -188 vlineto
          -66 -34 -31 -47 -3 vhcurveto
          -7 -66 412 66 -291 hlineto
          35 21 15 36 49 vvcurveto
          182 196 60 -196 105 vlineto
          88 42 41 58 vhcurveto
          endchar
        </CharString>
        <CharString name="t">
          -96 21 -21 489 71 hstem
          189 82 vstem
          437 -20 callsubr
          -412 -71 164 -489 82 489 166 hlineto
          endchar
        </CharString>
        <CharString name="thorn">
          -15 21 -21 102 62 244 62 90 -20 31 callsubr
          102 28 callsubr
          -73 90 hlineto
          75 -152 22 callsubr
        </CharString>
        <CharString name="three">
          -18 -10 63 281 67 249 60 hstemhm
          366 82 -60 82 hintmask 11110000
          141 567 rmoveto
          41 15 42 42 61 hhcurveto
          63 44 -34 -86 -78 -48 -51 -61 hvcurveto
          -47 -67 44 hlineto
          hintmask 11101000
          70 64 -25 -109 -107 -69 -40 -61 -68 -36 38 37 -21 hvcurveto
          -63 -36 rlineto
          -65 38 66 -37 85 hhcurveto
          101 110 71 142 105 -70 57 -83 9 hvcurveto
          hintmask 11110000
          71 14 60 60 87 vvcurveto
          115 -85 60 -100 -78 -78 -38 -79 -33 vhcurveto
          endchar
        </CharString>
        <CharString name="threequarters">
          50 callsubr
          185 55 126 51 108 56 100 -20 hstemhm
          255 73 -73 86 300 66 hintmask 1111111011000000
          -36 callsubr
          -38 468 -7 callsubr
          hintmask 1111111101000000
          -41 callsubr
        </CharString>
        <CharString name="threesuperior">
          -218 414 55 126 51 108 56 hstemhm
          217 73 -73 86 hintmask 11101000
          167 469 -7 callsubr
          hintmask 11110000
          -41 callsubr
        </CharString>
        <CharString name="tilde">
          -208 642 57 callsubr
          676 -38 callsubr
        </CharString>
        <CharString name="tilde.cap">
          -208 782 57 callsubr
          816 -38 callsubr
        </CharString>
        <CharString name="two">
          -18 0 71 575 64 hstem
          390 82 vstem
          150 534 rmoveto
          72 19 45 40 64 hhcurveto
          80 32 -47 -71 -71 -28 -45 -73 -88 hvcurveto
          -206 -245 rlineto
          -79 380 71 -291 vlineto
          168 196 rlineto
          97 113 35 65 83 vvcurveto
          128 -87 54 -103 -105 -70 -58 -97 -33 vhcurveto
          endchar
        </CharString>
        <CharString name="twosuperior">
          -218 420 60 274 56 hstem
          224 76 vstem
          169 754 -48 callsubr
          endchar
        </CharString>
        <CharString name="u">
          16 callsubr
          hstem
          85 82 265 79 vstem
          -91 callsubr
          endchar
        </CharString>
        <CharString name="uacute">
          -59 callsubr
          71 91 -56 callsubr
        </CharString>
        <CharString name="ucircumflex">
          16 callsubr
          98 -21 148 -87 callsubr
          131 136 -82 callsubr
        </CharString>
        <CharString name="udieresis">
          16 callsubr
          136 -21 90 -87 callsubr
          76 95 -86 callsubr
        </CharString>
        <CharString name="ugrave">
          -59 callsubr
          46 215 -34 callsubr
        </CharString>
        <CharString name="underscore">
          -78 -120 68 hstem
          482 -120 rmoveto
          68 -484 -68 vlineto
          endchar
        </CharString>
        <CharString name="uni0001">
          endchar
        </CharString>
        <CharString name="uni0002">
          endchar
        </CharString>
        <CharString name="uni0003">
          endchar
        </CharString>
        <CharString name="uni0004">
          endchar
        </CharString>
        <CharString name="uni0005">
          endchar
        </CharString>
        <CharString name="uni0006">
          endchar
        </CharString>
        <CharString name="uni0007">
          endchar
        </CharString>
        <CharString name="uni0008">
          endchar
        </CharString>
        <CharString name="uni0009">
          endchar
        </CharString>
        <CharString name="uni0010">
          endchar
        </CharString>
        <CharString name="uni0011">
          endchar
        </CharString>
        <CharString name="uni0012">
          endchar
        </CharString>
        <CharString name="uni0013">
          endchar
        </CharString>
        <CharString name="uni0014">
          endchar
        </CharString>
        <CharString name="uni0015">
          endchar
        </CharString>
        <CharString name="uni0016">
          endchar
        </CharString>
        <CharString name="uni0017">
          endchar
        </CharString>
        <CharString name="uni0018">
          endchar
        </CharString>
        <CharString name="uni0019">
          endchar
        </CharString>
        <CharString name="uni00AD">
          13 callsubr
        </CharString>
        <CharString name="v">
          -56 -5 callsubr
          410 -20 callsubr
          -157 -498 -153 498 rlineto
          -90 hlineto
          185 -560 rlineto
          112 hlineto
          185 560 rlineto
          endchar
        </CharString>
        <CharString name="w">
          166 -5 callsubr
          619 -20 callsubr
          -84 -472 -110 472 rlineto
          -109 hlineto
          -119 -474 -85 474 rlineto
          -87 hlineto
          111 -560 rlineto
          110 hlineto
          121 478 118 -478 rlineto
          103 hlineto
          111 560 rlineto
          endchar
        </CharString>
        <CharString name="x">
          -18 -5 callsubr
          496 -20 callsubr
          -90 hlineto
          -132 -204 -126 204 rlineto
          -96 hlineto
          170 -272 -187 -288 rlineto
          90 hlineto
          144 226 138 -226 rlineto
          98 hlineto
          -185 295 rlineto
          endchar
        </CharString>
        <CharString name="y">
          -71 -5 callsubr
          205 80 vstem
          -63 callsubr
          endchar
        </CharString>
        <CharString name="yacute">
          -71 -52 callsubr
          89 -21 167 -30 callsubr
          -294 91 -56 callsubr
        </CharString>
        <CharString name="ydieresis">
          -71 -52 callsubr
          136 -21 90 -30 callsubr
          -289 95 -86 callsubr
        </CharString>
        <CharString name="yen">
          -18 21 -21 155 60 80 59 346 -20 hstem
          236 75 vstem
          311 hmoveto
          155 149 60 -149 80 149 60 -113 vlineto
          161 345 rlineto
          -82 hlineto
          -151 -356 -149 356 rlineto
          -90 hlineto
          164 -346 rlineto
          -120 -59 156 -80 -156 -60 156 -155 hlineto
          endchar
        </CharString>
        <CharString name="z">
          -79 0 64 432 64 hstem
          429 492 rmoveto
          68 -367 -64 278 vlineto
          -300 -426 rlineto
          -70 380 64 -289 vlineto
          endchar
        </CharString>
        <CharString name="zero">
          -18 -10 63 584 63 hstem
          59 82 260 82 vstem
          141 344 rmoveto
          219 50 74 80 80 50 -74 -219 -219 -50 -72 -80 -80 -50 72 219 vhcurveto
          342 hmoveto
          269 -83 87 -129 -129 -83 -97 -259 -269 83 -85 129 129 83 95 259 vhcurveto
          endchar
        </CharString>
</ttFont>
